HIERARCHY
ROOT newVegas:Hips
{
	OFFSET 0.000000 96.479958 0.000000
	CHANNELS 6 Xposition Yposition Zposition Xrotation Yrotation Zrotation
	JOINT newVegas:Pelvis
	{
		OFFSET 0.000000 0.000000 0.000000
		CHANNELS 3 Xrotation Yrotation Zrotation
		JOINT newVegas:LeftUpLeg
		{
			OFFSET 18.735201 -5.666702 -4.541200
			CHANNELS 3 Xrotation Yrotation Zrotation
			JOINT newVegas:LeftLeg
			{
				OFFSET -0.021200 -31.938179 0.493100
				CHANNELS 3 Xrotation Yrotation Zrotation
				JOINT newVegas:LeftFoot
				{
					OFFSET 0.021200 -31.938179 -4.336299
					CHANNELS 3 Xrotation Yrotation Zrotation
					JOINT newVegas:LeftToeBase
					{
						OFFSET 0.943001 -26.722000 15.023500
						CHANNELS 3 Xrotation Yrotation Zrotation
						End Site
						{
							OFFSET 0.000000 30.670183 0.000000
						}
					}
				}
				JOINT newVegas:Left_PantLeg
				{
					OFFSET 0.663870 -9.044666 -1.108900
					CHANNELS 3 Xrotation Yrotation Zrotation
					End Site
					{
						OFFSET 1.415995 20.635357 0.000000
					}
				}
			}
		}
		JOINT newVegas:RightUpLeg
		{
			OFFSET -18.735201 -5.666702 -4.541200
			CHANNELS 3 Xrotation Yrotation Zrotation
			JOINT newVegas:RightLeg
			{
				OFFSET 0.018946 -31.938133 0.493100
				CHANNELS 3 Xrotation Yrotation Zrotation
				JOINT newVegas:RightFoot
				{
					OFFSET -0.018946 -31.938126 -4.336299
					CHANNELS 3 Xrotation Yrotation Zrotation
					JOINT newVegas:RightToeBase
					{
						OFFSET -0.943001 -26.722004 15.023500
						CHANNELS 3 Xrotation Yrotation Zrotation
						End Site
						{
							OFFSET 0.000000 30.670187 0.000000
						}
					}
				}
				JOINT newVegas:Right_PantLeg
				{
					OFFSET -0.661674 -9.044716 -1.108900
					CHANNELS 3 Xrotation Yrotation Zrotation
					End Site
					{
						OFFSET -1.415958 20.635269 0.000000
					}
				}
			}
		}
	}
	JOINT newVegas:Spine
	{
		OFFSET 0.000000 10.199997 -0.299500
		CHANNELS 3 Xrotation Yrotation Zrotation
		JOINT newVegas:Spine1
		{
			OFFSET 0.000000 11.900002 -1.516600
			CHANNELS 3 Xrotation Yrotation Zrotation
			JOINT newVegas:Spine2
			{
				OFFSET 0.000000 13.600006 -2.842500
				CHANNELS 3 Xrotation Yrotation Zrotation
				JOINT newVegas:Neck
				{
					OFFSET 0.000000 9.624100 -2.890100
					CHANNELS 3 Xrotation Yrotation Zrotation
					JOINT newVegas:Head
					{
						OFFSET 0.000000 14.068802 -1.351900
						CHANNELS 3 Xrotation Yrotation Zrotation
						JOINT newVegas:Hair_Back
						{
							OFFSET 0.000000 3.231903 -17.524799
							CHANNELS 3 Xrotation Yrotation Zrotation
							End Site
							{
								OFFSET 0.000000 19.849884 0.000000
							}
						}
						JOINT newVegas:Hair_Front
						{
							OFFSET 0.000000 31.260406 4.573800
							CHANNELS 3 Xrotation Yrotation Zrotation
							JOINT newVegas:Hair_Front1
							{
								OFFSET 0.000000 2.284103 11.993300
								CHANNELS 3 Xrotation Yrotation Zrotation
								JOINT newVegas:Hair_Front2
								{
									OFFSET 0.000000 2.284103 11.993300
									CHANNELS 3 Xrotation Yrotation Zrotation
									End Site
									{
										OFFSET 0.000000 12.208862 0.000000
									}
								}
							}
						}
						JOINT newVegas:Jowel
						{
							OFFSET 0.000000 -7.458206 6.864100
							CHANNELS 3 Xrotation Yrotation Zrotation
							End Site
							{
								OFFSET 0.000000 19.849884 0.000000
							}
						}
					}
				}
				JOINT newVegas:LeftShoulder
				{
					OFFSET 15.263000 10.923401 -0.547700
					CHANNELS 3 Xrotation Yrotation Zrotation
					JOINT newVegas:LeftArm
					{
						OFFSET 25.438599 -2.830597 -13.032500
						CHANNELS 3 Xrotation Yrotation Zrotation
						JOINT newVegas:LeftForeArm
						{
							OFFSET 29.960503 0.000000 0.000000
							CHANNELS 3 Xrotation Yrotation Zrotation
							JOINT newVegas:LeftHand
							{
								OFFSET 27.849251 0.000000 0.000000
								CHANNELS 3 Xrotation Yrotation Zrotation
								JOINT newVegas:LeftHandThumb1
								{
									OFFSET 4.487587 -3.305161 6.305391
									CHANNELS 3 Xrotation Yrotation Zrotation
									JOINT newVegas:LeftHandThumb2
									{
										OFFSET 5.480453 -3.164139 3.164143
										CHANNELS 3 Xrotation Yrotation Zrotation
										JOINT newVegas:LeftHandThumb3
										{
											OFFSET 5.159721 -2.978973 2.978967
											CHANNELS 3 Xrotation Yrotation Zrotation
											End Site
											{
												OFFSET 2.494507 5.926697 1.738678
											}
										}
									}
								}
								JOINT newVegas:LeftHandIndex1
								{
									OFFSET 18.578728 -0.527832 5.208049
									CHANNELS 3 Xrotation Yrotation Zrotation
									JOINT newVegas:LeftHandIndex2
									{
										OFFSET 3.192009 0.000000 0.000000
										CHANNELS 3 Xrotation Yrotation Zrotation
										JOINT newVegas:LeftHandIndex3
										{
											OFFSET 3.835129 0.000000 0.000000
											CHANNELS 3 Xrotation Yrotation Zrotation
											End Site
											{
												OFFSET -0.034599 3.816971 0.371180
											}
										}
									}
								}
								JOINT newVegas:LeftHandMiddle1
								{
									OFFSET 18.476105 0.000000 0.000000
									CHANNELS 3 Xrotation Yrotation Zrotation
									JOINT newVegas:LeftHandMiddle2
									{
										OFFSET 3.324875 0.000000 0.000000
										CHANNELS 3 Xrotation Yrotation Zrotation
										JOINT newVegas:LeftHandMiddle3
										{
											OFFSET 4.596550 0.000000 0.000000
											CHANNELS 3 Xrotation Yrotation Zrotation
											End Site
											{
												OFFSET 0.057701 4.578827 0.399218
											}
										}
									}
								}
								JOINT newVegas:LeftHandRing1
								{
									OFFSET 17.732719 0.121887 -4.201567
									CHANNELS 3 Xrotation Yrotation Zrotation
									JOINT newVegas:LeftHandRing2
									{
										OFFSET 2.733170 0.000000 0.000000
										CHANNELS 3 Xrotation Yrotation Zrotation
										JOINT newVegas:LeftHandRing3
										{
											OFFSET 3.178268 0.000000 0.000000
											CHANNELS 3 Xrotation Yrotation Zrotation
											End Site
											{
												OFFSET 0.119102 3.170624 0.185394
											}
										}
									}
								}
								JOINT newVegas:LeftHandPinky1
								{
									OFFSET 15.989624 -0.606689 -7.535461
									CHANNELS 3 Xrotation Yrotation Zrotation
									JOINT newVegas:LeftHandPinky2
									{
										OFFSET 2.538986 0.000000 0.000000
										CHANNELS 3 Xrotation Yrotation Zrotation
										JOINT newVegas:LeftHandPinky3
										{
											OFFSET 2.593102 0.000000 0.000000
											CHANNELS 3 Xrotation Yrotation Zrotation
											End Site
											{
												OFFSET -0.150902 2.584198 0.152708
											}
										}
									}
								}
							}
							JOINT newVegas:Left_Sleeve
							{
								OFFSET 0.267448 -0.649796 0.577675
								CHANNELS 3 Xrotation Yrotation Zrotation
								End Site
								{
									OFFSET 0.000000 15.991241 0.000000
								}
							}
							JOINT newVegas:Left_CapeC
							{
								OFFSET 15.715958 -8.608795 -6.935905
								CHANNELS 3 Xrotation Yrotation Zrotation
								JOINT newVegas:Left_CapeC1
								{
									OFFSET 0.000000 -8.688499 0.000000
									CHANNELS 3 Xrotation Yrotation Zrotation
									End Site
									{
										OFFSET 0.000000 8.688499 0.000000
									}
								}
							}
						}
						JOINT newVegas:Left_CapeB
						{
							OFFSET 26.118385 -8.608795 -7.079235
							CHANNELS 3 Xrotation Yrotation Zrotation
							JOINT newVegas:Left_CapeB1
							{
								OFFSET 0.000000 -8.688499 0.000000
								CHANNELS 3 Xrotation Yrotation Zrotation
								End Site
								{
									OFFSET 0.000000 8.688499 0.000000
								}
							}
						}
						JOINT newVegas:Left_CapeA
						{
							OFFSET 5.115639 -8.608795 -10.395809
							CHANNELS 3 Xrotation Yrotation Zrotation
							JOINT newVegas:Left_CapeA1
							{
								OFFSET 0.000000 -8.688499 0.000000
								CHANNELS 3 Xrotation Yrotation Zrotation
								End Site
								{
									OFFSET 0.000000 8.688499 0.000000
								}
							}
						}
					}
				}
				JOINT newVegas:RightShoulder
				{
					OFFSET -15.263000 10.923401 -0.547700
					CHANNELS 3 Xrotation Yrotation Zrotation
					JOINT newVegas:RightArm
					{
						OFFSET -25.438599 -2.830597 -13.032500
						CHANNELS 3 Xrotation Yrotation Zrotation
						JOINT newVegas:RightForeArm
						{
							OFFSET -29.960503 0.000000 0.000000
							CHANNELS 3 Xrotation Yrotation Zrotation
							JOINT newVegas:RightHand
							{
								OFFSET -27.849251 0.000000 0.000000
								CHANNELS 3 Xrotation Yrotation Zrotation
								JOINT newVegas:RightHandThumb1
								{
									OFFSET -4.487587 -3.305161 6.305391
									CHANNELS 3 Xrotation Yrotation Zrotation
									JOINT newVegas:RightHandThumb2
									{
										OFFSET -5.480453 -3.164139 3.164143
										CHANNELS 3 Xrotation Yrotation Zrotation
										JOINT newVegas:RightHandThumb3
										{
											OFFSET -5.159721 -2.978973 2.978967
											CHANNELS 3 Xrotation Yrotation Zrotation
											End Site
											{
												OFFSET -2.494507 5.926697 1.738678
											}
										}
									}
								}
								JOINT newVegas:RightHandIndex1
								{
									OFFSET -18.578728 -0.527832 5.208049
									CHANNELS 3 Xrotation Yrotation Zrotation
									JOINT newVegas:RightHandIndex2
									{
										OFFSET -3.192009 0.000000 0.000000
										CHANNELS 3 Xrotation Yrotation Zrotation
										JOINT newVegas:RightHandIndex3
										{
											OFFSET -3.835129 0.000000 0.000000
											CHANNELS 3 Xrotation Yrotation Zrotation
											End Site
											{
												OFFSET 0.034599 3.816971 0.371180
											}
										}
									}
								}
								JOINT newVegas:RightHandMiddle1
								{
									OFFSET -18.476105 0.000000 0.000000
									CHANNELS 3 Xrotation Yrotation Zrotation
									JOINT newVegas:RightHandMiddle2
									{
										OFFSET -3.324875 0.000000 0.000000
										CHANNELS 3 Xrotation Yrotation Zrotation
										JOINT newVegas:RightHandMiddle3
										{
											OFFSET -4.596550 0.000000 0.000000
											CHANNELS 3 Xrotation Yrotation Zrotation
											End Site
											{
												OFFSET -0.057701 4.578827 0.399218
											}
										}
									}
								}
								JOINT newVegas:RightHandRing1
								{
									OFFSET -17.732719 0.121887 -4.201567
									CHANNELS 3 Xrotation Yrotation Zrotation
									JOINT newVegas:RightHandRing2
									{
										OFFSET -2.733170 0.000000 0.000000
										CHANNELS 3 Xrotation Yrotation Zrotation
										JOINT newVegas:RightHandRing3
										{
											OFFSET -3.178268 0.000000 0.000000
											CHANNELS 3 Xrotation Yrotation Zrotation
											End Site
											{
												OFFSET -0.119102 3.170624 0.185394
											}
										}
									}
								}
								JOINT newVegas:RightHandPinky1
								{
									OFFSET -15.989624 -0.606689 -7.535461
									CHANNELS 3 Xrotation Yrotation Zrotation
									JOINT newVegas:RightHandPinky2
									{
										OFFSET -2.538986 0.000000 0.000000
										CHANNELS 3 Xrotation Yrotation Zrotation
										JOINT newVegas:RightHandPinky3
										{
											OFFSET -2.593102 0.000000 0.000000
											CHANNELS 3 Xrotation Yrotation Zrotation
											End Site
											{
												OFFSET 0.150902 2.584198 0.152708
											}
										}
									}
								}
							}
							JOINT newVegas:Right_CapeC
							{
								OFFSET -15.715958 -8.608795 -6.935905
								CHANNELS 3 Xrotation Yrotation Zrotation
								JOINT newVegas:Right_CapeC1
								{
									OFFSET 0.000000 -8.688499 0.000000
									CHANNELS 3 Xrotation Yrotation Zrotation
									End Site
									{
										OFFSET 0.000000 8.688499 0.000000
									}
								}
							}
							JOINT newVegas:Right_Sleeve
							{
								OFFSET -0.267448 -0.649994 0.577675
								CHANNELS 3 Xrotation Yrotation Zrotation
								End Site
								{
									OFFSET 0.000000 15.991302 0.000000
								}
							}
						}
						JOINT newVegas:Right_CapeA
						{
							OFFSET -5.115540 -8.608795 -10.395824
							CHANNELS 3 Xrotation Yrotation Zrotation
							JOINT newVegas:Right_CapeA1
							{
								OFFSET 0.000000 -8.688499 0.000000
								CHANNELS 3 Xrotation Yrotation Zrotation
								End Site
								{
									OFFSET 0.000000 8.688499 0.000000
								}
							}
						}
						JOINT newVegas:Right_CapeB
						{
							OFFSET -26.118187 -8.608795 -7.079266
							CHANNELS 3 Xrotation Yrotation Zrotation
							JOINT newVegas:Right_CapeB1
							{
								OFFSET 0.000000 -8.688499 0.000000
								CHANNELS 3 Xrotation Yrotation Zrotation
								End Site
								{
									OFFSET 0.000000 8.688499 0.000000
								}
							}
						}
					}
				}
				JOINT newVegas:Left_Collar
				{
					OFFSET 18.625099 8.655502 8.828100
					CHANNELS 3 Xrotation Yrotation Zrotation
					JOINT newVegas:Left_Collar1
					{
						OFFSET 14.783401 10.540405 -1.259500
						CHANNELS 3 Xrotation Yrotation Zrotation
						End Site
						{
							OFFSET 0.000000 18.199875 0.000000
						}
					}
				}
				JOINT newVegas:Collar_Back
				{
					OFFSET 0.000000 15.630707 -20.132601
					CHANNELS 3 Xrotation Yrotation Zrotation
					End Site
					{
						OFFSET 0.000000 22.523010 0.000000
					}
				}
				JOINT newVegas:Left_Peck
				{
					OFFSET 17.239599 -5.132599 25.482599
					CHANNELS 3 Xrotation Yrotation Zrotation
					End Site
					{
						OFFSET 0.000000 22.523010 0.000000
					}
				}
				JOINT newVegas:Right_Peck
				{
					OFFSET -17.239599 -5.132202 25.482599
					CHANNELS 3 Xrotation Yrotation Zrotation
					End Site
					{
						OFFSET 0.000000 22.523010 0.000000
					}
				}
				JOINT newVegas:Right_Collar
				{
					OFFSET -18.625099 8.655792 8.828100
					CHANNELS 3 Xrotation Yrotation Zrotation
					JOINT newVegas:Right_Collar1
					{
						OFFSET -14.783401 10.539993 -1.259500
						CHANNELS 3 Xrotation Yrotation Zrotation
						End Site
						{
							OFFSET 0.000000 18.199631 0.000000
						}
					}
				}
			}
		}
		JOINT newVegas:Belly
		{
			OFFSET 0.000000 -6.540398 9.014299
			CHANNELS 3 Xrotation Yrotation Zrotation
			End Site
			{
				OFFSET 0.000000 11.566666 0.000000
			}
		}
	}
	JOINT newVegas:ElvisFacialAnim_Joint
	{
		OFFSET 1.000000 -95.330101 -8.825800
		CHANNELS 3 Xrotation Yrotation Zrotation
		End Site
		{
			OFFSET 0.000000 35.315800 0.000000
		}
	}
}
MOTION
Frames: 4
Frame Time: 0.016667
1.024527 93.691513 4.418387 -0.895230 1.554004 -4.421725 0.000000 0.000000 -0.000000 -22.233563 9.554636 17.698468 30.446746 8.683757 2.524814 -6.085521 4.295718 -11.970426 0.000000 0.000000 -0.000000 -0.000000 -0.000000 -0.000001 3.799660 -3.818626 11.702050 3.915432 -5.401533 3.200462 -7.048632 1.142508 -9.593923 -0.000000 -0.000000 -0.000000 -0.000001 -0.000001 -0.000001 1.278337 -1.194812 2.078961 0.728744 0.264195 5.944687 0.710789 0.781493 5.851996 0.416724 -0.141643 -0.865270 0.416722 -0.141643 -0.865273 -0.000000 0.000000 0.000000 0.416652 -0.141643 -0.865272 0.416797 -0.141639 -0.865274 0.000000 0.000000 -0.000000 -0.000000 0.000000 0.000000 3.582360 -13.764044 -5.044453 4.032787 3.514254 -83.678321 -0.000001 -14.506748 0.000019 -27.592518 3.698839 -9.416214 18.491281 -0.461422 10.916065 1.284056 32.757608 -3.088983 0.000002 -0.000003 -0.000003 0.339563 4.671350 -7.844259 0.387028 2.823580 -20.566226 0.000001 -0.000002 0.000003 0.912593 8.769262 -15.831748 0.919076 3.991127 -33.400428 -0.000000 -0.000000 0.000001 2.555832 11.673020 -26.909200 1.710656 3.886774 -40.215467 -0.000001 0.000001 -0.000000 5.576077 16.029178 -36.940621 1.378685 4.077625 -45.645632 -0.000001 -0.000002 0.000000 -0.000000 0.000000 -0.000000 -0.000000 0.000000 -0.000000 -0.000000 0.000000 -0.000000 0.000001 0.000000 0.000001 0.000001 0.000000 0.000001 0.000001 0.000000 0.000001 0.000001 -0.000000 0.000001 4.508128 3.324373 5.471577 -1.219627 0.655869 67.345406 -0.000003 17.736787 0.000007 -11.193155 -9.123242 10.139293 18.491282 0.461420 -10.916076 1.284039 -32.757608 3.088950 0.000000 -0.000003 0.000001 0.339560 -4.671355 7.844279 0.387031 -2.823580 20.566268 0.000000 0.000001 -0.000003 0.912591 -8.769260 15.831742 0.919075 -3.991128 33.400438 0.000000 -0.000001 0.000002 2.555830 -11.673016 26.909216 1.710654 -3.886778 40.215443 0.000001 -0.000001 -0.000000 5.576086 -16.029180 36.940651 1.378675 -4.077617 45.645611 0.000001 0.000001 0.000001 0.000000 0.000000 -0.000000 0.000000 0.000000 -0.000001 0.000000 0.000000 0.000000 0.000000 0.000001 -0.000001 0.000000 0.000001 -0.000000 0.000000 0.000001 -0.000001 0.000000 0.000001 -0.000000 0.000000 0.000000 0.000000 0.000000 0.000000 0.000000 0.000000 0.000000 0.000000 0.000000 0.000000 0.000000 0.000000 0.000000 0.000000 0.000000 0.000000 0.000000 0.000000 0.000000 0.000000 0.000000 -0.000000 0.000000 0.000000 0.000000 -0.000000 
0.902173 93.680374 4.403361 -0.844764 1.605263 -4.520403 0.000000 -0.000000 -0.000000 -22.393755 9.412068 17.892553 30.518562 8.762508 2.552460 -6.024474 4.192083 -12.105837 -0.000000 -0.000002 0.000000 -0.000000 0.000000 -0.000000 4.051550 -3.633914 11.924953 3.244704 -5.529559 3.235498 -6.712116 1.099935 -9.757291 -0.000000 -0.000001 -0.000000 0.000001 -0.000001 0.000000 1.242017 -1.194490 2.094907 0.804995 0.271352 5.942364 0.791298 0.784184 5.830779 0.393734 -0.149949 -0.815626 0.393736 -0.149949 -0.815630 0.000000 0.000000 -0.000001 0.393804 -0.149961 -0.815623 0.393727 -0.149933 -0.815629 0.000000 -0.000000 0.000001 0.000000 0.000000 0.000000 3.578790 -13.707247 -5.015857 3.780838 3.390086 -83.456026 0.000001 -14.511150 -0.000024 -27.318747 4.020857 -9.432629 18.491281 -0.461420 10.916062 1.284054 32.757608 -3.088987 0.000001 -0.000004 -0.000005 0.339560 4.671350 -7.844261 0.387025 2.823581 -20.566229 -0.000000 -0.000000 0.000003 0.912590 8.769262 -15.831752 0.919078 3.991127 -33.400424 0.000001 0.000001 -0.000001 2.555830 11.673016 -26.909200 1.710657 3.886773 -40.215474 -0.000001 -0.000001 0.000002 5.576076 16.029184 -36.940627 1.378684 4.077626 -45.645635 0.000001 -0.000002 -0.000001 0.000000 0.000000 0.000000 0.000000 0.000000 0.000000 0.000000 0.000000 0.000000 -0.000000 0.000001 -0.000000 0.000000 0.000000 -0.000001 -0.000000 0.000001 -0.000000 0.000000 0.000000 -0.000000 4.481676 3.349432 5.590988 -1.177694 1.237856 67.216247 -0.000001 17.736823 0.000016 -11.184839 -8.945789 10.174446 18.491284 0.461421 -10.916075 1.284042 -32.757608 3.088953 -0.000002 -0.000002 -0.000001 0.339560 -4.671354 7.844279 0.387032 -2.823578 20.566263 -0.000000 0.000001 0.000003 0.912591 -8.769259 15.831740 0.919074 -3.991128 33.400438 0.000000 -0.000001 0.000003 2.555831 -11.673014 26.909219 1.710652 -3.886778 40.215450 -0.000000 -0.000001 -0.000002 5.576085 -16.029182 36.940658 1.378675 -4.077623 45.645621 0.000001 -0.000000 -0.000000 -0.000000 -0.000000 -0.000000 -0.000000 -0.000000 0.000000 -0.000000 -0.000001 -0.000000 0.000000 0.000000 -0.000000 0.000000 0.000000 0.000001 0.000000 0.000000 -0.000000 0.000000 -0.000000 0.000001 0.000000 0.000000 0.000001 0.000000 0.000000 0.000001 0.000000 0.000000 0.000001 0.000000 0.000000 0.000001 0.000000 0.000000 0.000001 0.000000 0.000000 0.000001 0.000000 0.000000 0.000001 -0.000000 -0.000000 -0.000000 0.000000 -0.000000 -0.000000 
0.781473 93.666321 4.390459 -0.795208 1.659050 -4.621526 -0.000000 -0.000000 -0.000000 -22.561131 9.265549 18.086800 30.608755 8.830743 2.583683 -5.973615 4.098376 -12.242199 0.000000 -0.000000 -0.000000 0.000001 -0.000001 0.000002 4.285434 -3.450956 12.147683 2.612623 -5.659180 3.267109 -6.391215 1.057390 -9.913519 0.000000 -0.000000 -0.000000 0.000000 0.000001 -0.000001 1.205487 -1.203141 2.109649 0.883787 0.274246 5.935622 0.874439 0.782059 5.804659 0.367658 -0.157367 -0.764625 0.367615 -0.157367 -0.764621 -0.000000 -0.000000 0.000000 0.367603 -0.157356 -0.764622 0.367737 -0.157377 -0.764622 -0.000000 0.000000 0.000000 -0.000000 -0.000000 0.000000 3.574453 -13.651338 -4.988284 3.522162 3.255679 -83.224626 0.000004 -14.517246 0.000010 -27.029898 4.361252 -9.454730 18.491277 -0.461418 10.916071 1.284055 32.757608 -3.088984 0.000002 0.000000 0.000001 0.339561 4.671350 -7.844261 0.387030 2.823579 -20.566229 -0.000001 -0.000001 0.000000 0.912591 8.769263 -15.831752 0.919077 3.991126 -33.400424 -0.000002 -0.000001 -0.000003 2.555831 11.673018 -26.909200 1.710656 3.886774 -40.215464 -0.000000 -0.000002 -0.000001 5.576076 16.029184 -36.940621 1.378682 4.077628 -45.645632 -0.000003 -0.000002 0.000001 -0.000000 0.000000 0.000001 -0.000000 0.000000 0.000001 -0.000000 0.000000 0.000001 0.000000 -0.000002 -0.000001 0.000000 -0.000001 -0.000001 0.000000 -0.000002 -0.000001 0.000000 -0.000002 -0.000001 4.449800 3.381854 5.730766 -1.131083 1.840465 67.077075 0.000007 17.687979 -0.000010 -11.183873 -8.708324 10.219234 18.491282 0.461418 -10.916072 1.284037 -32.757608 3.088954 0.000002 -0.000001 0.000001 0.339560 -4.671355 7.844279 0.387032 -2.823580 20.566266 -0.000000 -0.000001 0.000005 0.912590 -8.769261 15.831742 0.919075 -3.991126 33.400441 0.000000 0.000000 0.000000 2.555830 -11.673019 26.909219 1.710654 -3.886779 40.215447 -0.000001 0.000001 -0.000001 5.576082 -16.029185 36.940651 1.378677 -4.077620 45.645621 0.000001 0.000002 0.000000 0.000001 0.000000 -0.000000 0.000000 -0.000000 0.000000 0.000001 -0.000000 -0.000000 0.000001 -0.000001 0.000000 0.000001 -0.000001 0.000000 0.000001 -0.000001 0.000000 0.000001 -0.000001 0.000000 -0.000000 -0.000000 -0.000001 -0.000000 -0.000000 -0.000001 -0.000000 -0.000000 -0.000001 -0.000000 -0.000000 -0.000001 -0.000000 -0.000000 -0.000001 -0.000000 -0.000000 -0.000001 -0.000000 -0.000000 -0.000001 0.000000 0.000000 -0.000000 -0.000000 -0.000000 -0.000000 
0.666057 93.644417 4.383405 -0.747894 1.719693 -4.727605 -0.000000 0.000000 -0.000001 -22.748117 9.109800 18.280323 30.749006 8.871180 2.623734 -5.951228 4.031086 -12.380733 0.000000 -0.000002 -0.000000 -0.000000 0.000002 0.000002 4.463898 -3.275530 12.366479 2.099339 -5.793773 3.293772 -6.119838 1.016553 -10.051321 -0.000000 -0.000001 -0.000000 -0.000000 0.000001 0.000001 1.168984 -1.220171 2.122694 0.965308 0.273020 5.924296 0.960402 0.775222 5.773462 0.338399 -0.163919 -0.712054 0.338346 -0.163918 -0.712060 -0.000000 -0.000000 -0.000000 0.338276 -0.163925 -0.712054 0.338484 -0.163916 -0.712055 -0.000000 0.000000 0.000000 -0.000000 -0.000000 -0.000000 3.569242 -13.596743 -4.962268 3.256770 3.110455 -82.983137 0.000003 -14.524937 -0.000013 -26.724491 4.721290 -9.483389 18.491281 -0.461421 10.916067 1.284055 32.757608 -3.088984 0.000002 -0.000001 0.000001 0.339563 4.671350 -7.844261 0.387025 2.823580 -20.566224 0.000000 -0.000000 -0.000002 0.912594 8.769262 -15.831748 0.919076 3.991126 -33.400421 0.000001 -0.000002 0.000001 2.555832 11.673016 -26.909200 1.710655 3.886772 -40.215464 -0.000000 -0.000001 0.000000 5.576078 16.029182 -36.940621 1.378683 4.077621 -45.645639 0.000001 -0.000002 0.000001 0.000000 -0.000000 0.000000 0.000000 -0.000000 0.000000 0.000000 -0.000000 0.000000 0.000000 -0.000002 -0.000001 0.000000 0.000000 -0.000001 0.000000 -0.000002 -0.000001 0.000000 0.000000 -0.000001 4.412044 3.421892 5.891971 -1.079194 2.463874 66.927152 -0.000001 17.587216 0.000010 -11.191070 -8.406586 10.273797 18.491281 0.461421 -10.916072 1.284039 -32.757608 3.088954 0.000001 -0.000002 -0.000003 0.339560 -4.671355 7.844282 0.387032 -2.823580 20.566266 -0.000000 0.000001 0.000001 0.912590 -8.769259 15.831740 0.919075 -3.991128 33.400431 -0.000000 -0.000000 0.000007 2.555828 -11.673016 26.909219 1.710653 -3.886778 40.215440 -0.000001 0.000001 -0.000001 5.576085 -16.029185 36.940658 1.378677 -4.077623 45.645618 0.000001 0.000002 -0.000000 0.000001 -0.000001 0.000000 0.000000 0.000000 0.000000 0.000001 -0.000001 0.000001 0.000001 0.000000 0.000000 0.000001 0.000000 0.000000 0.000001 0.000000 0.000000 0.000001 -0.000000 0.000000 0.000000 0.000000 0.000000 0.000000 0.000000 0.000000 0.000000 0.000000 0.000000 0.000000 0.000000 0.000000 0.000000 0.000000 0.000000 0.000000 0.000000 0.000000 0.000000 0.000000 0.000000 0.000000 -0.000000 -0.000000 -0.000000 0.000000 -0.000001 
